<svg width="22" height="19" viewBox="0 0 22 19" fill="none" xmlns="http://www.w3.org/2000/svg">
<path fill-rule="evenodd" clip-rule="evenodd" d="M13.0625 2.375C13.0625 3.68668 11.9992 4.75 10.6875 4.75C9.37586 4.75 8.31254 3.68668 8.31254 2.375C8.31254 1.06332 9.37586 0 10.6875 0C11.9992 0 13.0625 1.06332 13.0625 2.375ZM20.3656 11.8273C20.9475 11.8867 21.375 12.3973 21.375 12.9911C21.375 13.7036 20.7456 14.2498 20.0331 14.1786C17.3019 13.8461 14.915 12.528 13.0625 10.3905V13.0623L17.6581 14.903C18.62 15.283 19.19 16.3161 18.9406 17.373C18.7031 18.3586 17.7531 18.9998 16.7437 18.9998H8.3125V18.4061C8.3125 17.4205 9.10812 16.6248 10.0938 16.6248H13.6562C13.9888 16.6248 14.25 16.3636 14.25 16.0311C14.25 15.6986 13.9888 15.4373 13.6562 15.4373H10.0938C9.30639 15.4373 8.55128 15.7501 7.99453 16.3069C7.43778 16.8636 7.125 17.6187 7.125 18.4061V18.9998H4.50063C4.20355 18.9997 3.9098 18.9373 3.63834 18.8166C3.36687 18.6959 3.12372 18.5197 2.92455 18.2993C2.72539 18.0789 2.57464 17.8191 2.48203 17.5369C2.38942 17.2546 2.357 16.956 2.38688 16.6605C2.47 15.8292 3.07562 15.1523 3.8475 14.8436L8.3125 13.0623V10.3905C6.47188 12.528 4.07312 13.858 1.34188 14.1786C0.629375 14.2617 0 13.7036 0 12.9911C0 12.3973 0.4275 11.8867 1.02125 11.8155C3.25375 11.5661 5.1775 10.4736 6.66187 8.69234L8.25313 6.79234C8.70437 6.24609 9.36937 5.93734 10.07 5.93734H11.3169C12.0175 5.93734 12.6825 6.24609 13.1338 6.80421L14.725 8.70422C16.2212 10.4855 18.1331 11.578 20.3656 11.8273Z" fill="white"/>
</svg>
