<svg width="176" height="144" viewBox="0 0 176 144" fill="none" xmlns="http://www.w3.org/2000/svg">
<g opacity="0.5">
<path d="M48.0326 47.0278C47.8069 46.0486 47.2559 45.1747 46.4695 44.549C45.6832 43.9233 44.7079 43.5826 43.7029 43.5827H11.3922C10.2139 43.5827 9.08388 44.0508 8.25071 44.884C7.41753 45.7171 6.94946 46.8471 6.94946 48.0254V119.844C6.94946 121.022 7.41753 122.152 8.25071 122.986C9.08388 123.819 10.2139 124.287 11.3922 124.287H113.979C115.157 124.287 116.287 123.819 117.12 122.986C117.953 122.152 118.422 121.022 118.422 119.844V59.5159C118.422 58.3377 117.953 57.2076 117.12 56.3745C116.287 55.5413 115.157 55.0732 113.979 55.0732H58.1418C55.7951 55.0736 53.5176 54.2782 51.6815 52.8169C49.8453 51.3555 48.5589 49.3147 48.0326 47.0278Z" fill="#ADADAD"/>
<path opacity="0.6" d="M48.0326 47.0278C47.8069 46.0486 47.2559 45.1747 46.4695 44.549C45.6832 43.9233 44.7079 43.5826 43.7029 43.5827H11.3922C10.2139 43.5827 9.08388 44.0508 8.25071 44.884C7.41753 45.7171 6.94946 46.8471 6.94946 48.0254V119.844C6.94946 121.022 7.41753 122.152 8.25071 122.986C9.08388 123.819 10.2139 124.287 11.3922 124.287H113.979C115.157 124.287 116.287 123.819 117.12 122.986C117.953 122.152 118.422 121.022 118.422 119.844V59.5159C118.422 58.3377 117.953 57.2076 117.12 56.3745C116.287 55.5413 115.157 55.0732 113.979 55.0732H58.1418C55.7951 55.0736 53.5176 54.2782 51.6815 52.8169C49.8453 51.3555 48.5589 49.3147 48.0326 47.0278Z" fill="black"/>
<path opacity="0.22" d="M36.6272 24.6607L39.5069 33.9864C39.8745 35.1733 40.6982 36.1658 41.797 36.7458C42.8958 37.3259 44.1799 37.4461 45.3673 37.0802L54.6889 34.2005L36.6272 24.6607Z" fill="#ADADAD"/>
<path d="M36.6268 24.6607L3.30636 34.9557C2.71815 35.1364 2.17134 35.4313 1.69721 35.8236C1.22309 36.2158 0.83095 36.6977 0.54323 37.2416C0.255509 37.7855 0.0778533 38.3808 0.0204284 38.9935C-0.0369965 39.6062 0.0269355 40.2241 0.208566 40.812L19.2315 102.396C19.4131 102.984 19.7087 103.531 20.1015 104.005C20.4943 104.478 20.9766 104.87 21.5208 105.157C22.065 105.445 22.6605 105.622 23.2732 105.679C23.886 105.736 24.504 105.672 25.0919 105.49L67.738 92.3154C68.3259 92.1343 68.8723 91.8391 69.346 91.4466C69.8196 91.0542 70.2113 90.5723 70.4987 90.0284C70.786 89.4845 70.9633 88.8893 71.0205 88.2769C71.0776 87.6644 71.0135 87.0467 70.8318 86.4591L54.6764 34.2005L36.6268 24.6607Z" fill="#ADADAD"/>
<path opacity="0.8" d="M36.6268 24.6607L3.30636 34.9557C2.71815 35.1364 2.17134 35.4313 1.69721 35.8236C1.22309 36.2158 0.83095 36.6977 0.54323 37.2416C0.255509 37.7855 0.0778533 38.3808 0.0204284 38.9935C-0.0369965 39.6062 0.0269355 40.2241 0.208566 40.812L19.2315 102.396C19.4131 102.984 19.7087 103.531 20.1015 104.005C20.4943 104.478 20.9766 104.87 21.5208 105.157C22.065 105.445 22.6605 105.622 23.2732 105.679C23.886 105.736 24.504 105.672 25.0919 105.49L67.738 92.3154C68.3259 92.1343 68.8723 91.8391 69.346 91.4466C69.8196 91.0542 70.2113 90.5723 70.4987 90.0284C70.786 89.4845 70.9633 88.8893 71.0205 88.2769C71.0776 87.6644 71.0135 87.0467 70.8318 86.4591L54.6764 34.2005L36.6268 24.6607Z" fill="white"/>
<g opacity="0.28">
<path opacity="0.28" d="M54.5551 89.6255L26.8324 98.1879C26.314 98.3471 25.7536 98.2946 25.2737 98.0418C24.7939 97.789 24.4337 97.3565 24.2718 96.8389C24.114 96.3205 24.1677 95.7606 24.4212 95.2816C24.6747 94.8026 25.1074 94.4434 25.6248 94.2823L53.3475 85.7159C53.8664 85.5569 54.4273 85.6099 54.9072 85.8635C55.3872 86.1171 55.7471 86.5506 55.9081 87.0689C56.0659 87.5874 56.0122 88.1472 55.7587 88.6262C55.5052 89.1052 55.0725 89.4645 54.5551 89.6255Z" fill="#ADADAD"/>
</g>
<g opacity="0.28">
<path opacity="0.28" d="M24.7204 39.3742L10.0594 43.9018C9.54093 44.0599 8.981 44.0069 8.50145 43.7542C8.0219 43.5016 7.66153 43.0698 7.49875 42.5528C7.34079 42.0338 7.39437 41.4734 7.64781 40.9938C7.90125 40.5141 8.33401 40.1541 8.85176 39.9922L23.5128 35.4646C24.0312 35.3043 24.5921 35.3563 25.0722 35.6092C25.5524 35.8621 25.9124 36.2953 26.0734 36.8136C26.2314 37.3326 26.1778 37.8929 25.9243 38.3726C25.6709 38.8522 25.2381 39.2123 24.7204 39.3742Z" fill="#ADADAD"/>
</g>
<g opacity="0.28">
<path opacity="0.28" d="M36.6829 44.1764L12.4498 51.6604C11.9325 51.8158 11.3747 51.7609 10.8976 51.5076C10.4204 51.2543 10.0625 50.823 9.90134 50.3074C9.74222 49.7895 9.79484 49.2296 10.0477 48.7504C10.3005 48.2712 10.733 47.9118 11.2503 47.7508L35.4834 40.2668C36.0018 40.1076 36.5622 40.1601 37.0421 40.4129C37.5219 40.6657 37.8821 41.0982 38.044 41.6158C38.2005 42.1358 38.1453 42.6967 37.8904 43.1762C37.6355 43.6558 37.2015 44.0152 36.6829 44.1764Z" fill="#ADADAD"/>
</g>
<g opacity="0.28">
<path opacity="0.28" d="M50.2133 48.4939L14.8491 59.3988C14.3312 59.5579 13.7714 59.5053 13.2922 59.2524C12.813 58.9996 12.4535 58.5671 12.2926 58.0498C12.1344 57.5314 12.1874 56.9714 12.4401 56.4919C12.6927 56.0123 13.1245 55.652 13.6415 55.4892L49.0057 44.5843C49.5236 44.4263 50.0829 44.4794 50.5618 44.7321C51.0407 44.9848 51.4003 45.4166 51.5622 45.9333C51.7215 46.4517 51.669 47.0121 51.4162 47.492C51.1634 47.9718 50.7309 48.332 50.2133 48.4939Z" fill="#ADADAD"/>
</g>
<g opacity="0.28">
<path opacity="0.28" d="M52.6086 56.2485L32.0509 62.6016C31.5325 62.7594 30.9726 62.7057 30.4936 62.4522C30.0146 62.1987 29.6554 61.766 29.4943 61.2486C29.3363 60.7307 29.3895 60.1713 29.6421 59.6924C29.8948 59.2135 30.3266 58.8539 30.8433 58.692L51.401 52.3389C51.92 52.182 52.4799 52.2361 52.9593 52.4894C53.4386 52.7427 53.7988 53.1748 53.9617 53.6919C54.1195 54.2103 54.0658 54.7702 53.8123 55.2492C53.5588 55.7282 53.1261 56.0874 52.6086 56.2485Z" fill="#ADADAD"/>
</g>
<g opacity="0.28">
<path opacity="0.28" d="M22.6246 65.5136L17.2488 67.1736C16.7304 67.3328 16.17 67.2803 15.6902 67.0275C15.2103 66.7747 14.8501 66.3423 14.6882 65.8246C14.5292 65.3056 14.5822 64.7448 14.8358 64.2648C15.0894 63.7849 15.5229 63.425 16.0412 63.264L21.4169 61.604C21.9354 61.4459 22.4953 61.4989 22.9749 61.7515C23.4544 62.0042 23.8148 62.436 23.9776 62.953C24.1344 63.472 24.0803 64.0319 23.827 64.5112C23.5738 64.9906 23.1417 65.3508 22.6246 65.5136Z" fill="#ADADAD"/>
</g>
<g opacity="0.28">
<path opacity="0.28" d="M55.0076 64.0071L19.6435 74.9322C19.125 75.09 18.5652 75.0363 18.0862 74.7828C17.6072 74.5293 17.2479 74.0966 17.0869 73.5791C16.9278 73.0612 16.9804 72.5014 17.2332 72.0222C17.4861 71.543 17.9185 71.1835 18.4359 71.0226L53.8 60.0975C54.3179 59.9395 54.8773 59.9926 55.3562 60.2453C55.8351 60.498 56.1947 60.9297 56.3566 61.4465C56.5158 61.9649 56.4633 62.5253 56.2105 63.0052C55.9577 63.485 55.5252 63.8452 55.0076 64.0071Z" fill="#ADADAD"/>
</g>
<g opacity="0.28">
<path opacity="0.28" d="M43.7555 75.9782L22.0386 82.6868C21.5207 82.8448 20.9613 82.7916 20.4824 82.5389C20.0035 82.2862 19.6439 81.8545 19.482 81.3378C19.3239 80.8193 19.3769 80.2594 19.6295 79.7799C19.8822 79.3003 20.314 78.9399 20.831 78.7772L42.5479 72.0686C43.0668 71.9107 43.6272 71.9643 44.1069 72.2177C44.5865 72.4711 44.9465 72.9039 45.1085 73.4216C45.2674 73.9401 45.2142 74.5004 44.9606 74.9797C44.7069 75.459 44.2735 75.8181 43.7555 75.9782Z" fill="#ADADAD"/>
</g>
<g opacity="0.28">
<path opacity="0.28" d="M57.4031 71.7658L51.6073 73.555C51.0884 73.7129 50.528 73.6594 50.0483 73.4059C49.5687 73.1525 49.2087 72.7197 49.0467 72.202C48.8889 71.6835 48.9426 71.1237 49.1961 70.6447C49.4496 70.1657 49.8823 69.8064 50.3997 69.6454L56.1955 67.8562C56.7134 67.6971 57.2732 67.7497 57.7524 68.0025C58.2316 68.2554 58.5911 68.6878 58.7521 69.2051C58.9113 69.7236 58.8588 70.284 58.606 70.7638C58.3532 71.2437 57.9207 71.6039 57.4031 71.7658Z" fill="#ADADAD"/>
</g>
<g opacity="0.28">
<path opacity="0.28" d="M59.7976 79.5284L24.4416 90.4333C23.9226 90.5923 23.3617 90.5393 22.8818 90.2857C22.4019 90.0321 22.042 89.5986 21.881 89.0803C21.722 88.5618 21.7752 88.0015 22.0288 87.5222C22.2825 87.0429 22.7159 86.6838 23.234 86.5237L58.5941 75.5986C59.113 75.4417 59.6729 75.4958 60.1523 75.7491C60.6317 76.0024 60.9918 76.4345 61.1547 76.9516C61.2358 77.2099 61.265 77.4817 61.2406 77.7513C61.2163 78.0209 61.1388 78.283 61.0126 78.5225C60.8865 78.7621 60.7142 78.9742 60.5057 79.1469C60.2971 79.3195 60.0565 79.4492 59.7976 79.5284Z" fill="#ADADAD"/>
</g>
<path d="M60.557 1.50194L71.1307 25.0646C71.4052 25.6796 71.425 26.3784 71.1859 27.0081C70.9467 27.6377 70.468 28.1471 69.8544 28.4249L24.999 48.5585C24.3841 48.8341 23.6849 48.8545 23.0549 48.6153C22.425 48.376 21.9156 47.8966 21.6387 47.2822L11.061 23.7196C10.7841 23.1042 10.763 22.4041 11.0023 21.7731C11.2417 21.1422 11.7219 20.6322 12.3372 20.3553L57.1926 0.22163C57.8088 -0.0527724 58.5085 -0.0721392 59.1389 0.167761C59.7693 0.407661 60.2791 0.887323 60.557 1.50194Z" fill="#ADADAD"/>
<path opacity="0.3" d="M60.557 1.50194L71.1307 25.0646C71.4052 25.6796 71.425 26.3784 71.1859 27.0081C70.9467 27.6377 70.468 28.1471 69.8544 28.4249L24.999 48.5585C24.3841 48.8341 23.6849 48.8545 23.0549 48.6153C22.425 48.376 21.9156 47.8966 21.6387 47.2822L11.061 23.7196C10.7841 23.1042 10.763 22.4041 11.0023 21.7731C11.2417 21.1422 11.7219 20.6322 12.3372 20.3553L57.1926 0.22163C57.8088 -0.0527724 58.5085 -0.0721392 59.1389 0.167761C59.7693 0.407661 60.2791 0.887323 60.557 1.50194Z" fill="black"/>
<path d="M53.4877 0.337679L52.0542 0.980713L52.2195 1.34922L53.653 0.706186L53.4877 0.337679Z" fill="#ADADAD"/>
<path d="M50.0466 1.87938L45.5767 3.88452L45.742 4.25303L50.212 2.24789L50.0466 1.87938Z" fill="#ADADAD"/>
<path d="M11.021 26.0943L10.6526 26.2598L11.8768 28.9863L12.2452 28.8209L11.021 26.0943Z" fill="#ADADAD"/>
<path opacity="0.6" d="M59.0549 0.136847L47.4877 22.7948C46.4143 24.8949 44.6566 26.5659 42.5048 27.5316C40.3531 28.4972 37.9363 28.6998 35.6539 28.1058L11.0371 21.6881C11.2896 21.0975 11.7534 20.6222 12.3376 20.3553L57.193 0.221662C57.7806 -0.0410827 58.4459 -0.0713894 59.0549 0.136847Z" fill="#ADADAD"/>
<path d="M74.9553 29.1357L40.1486 31.2844C39.5336 31.321 38.932 31.4784 38.378 31.7478C37.824 32.0171 37.3285 32.3931 36.92 32.8541C36.5115 33.3152 36.1979 33.8523 35.9971 34.4347C35.7964 35.017 35.7125 35.6333 35.7503 36.2481L39.7204 100.579C39.7575 101.194 39.9156 101.796 40.1856 102.35C40.4557 102.904 40.8325 103.4 41.2944 103.808C41.7562 104.216 42.2941 104.529 42.8772 104.729C43.4603 104.929 44.0771 105.012 44.6923 104.973L89.2407 102.223C89.8549 102.186 90.4558 102.028 91.0089 101.758C91.562 101.488 92.0565 101.112 92.464 100.651C92.8714 100.19 93.1839 99.653 93.3835 99.0709C93.583 98.4888 93.6657 97.8731 93.6269 97.2589L90.2747 42.6659L74.9553 29.1357Z" fill="#ADADAD"/>
<path opacity="0.8" d="M74.9553 29.1357L40.1486 31.2844C39.5336 31.321 38.932 31.4784 38.378 31.7478C37.824 32.0171 37.3285 32.3931 36.92 32.8541C36.5115 33.3152 36.1979 33.8523 35.9971 34.4347C35.7964 35.017 35.7125 35.6333 35.7503 36.2481L39.7204 100.579C39.7575 101.194 39.9156 101.796 40.1856 102.35C40.4557 102.904 40.8325 103.4 41.2944 103.808C41.7562 104.216 42.2941 104.529 42.8772 104.729C43.4603 104.929 44.0771 105.012 44.6923 104.973L89.2407 102.223C89.8549 102.186 90.4558 102.028 91.0089 101.758C91.562 101.488 92.0565 101.112 92.464 100.651C92.8714 100.19 93.1839 99.653 93.3835 99.0709C93.583 98.4888 93.6657 97.8731 93.6269 97.2589L90.2747 42.6659L74.9553 29.1357Z" fill="white"/>
<g opacity="0.22">
<path opacity="0.22" d="M77.0592 96.4915L48.0967 98.2807C47.5556 98.3117 47.0243 98.1273 46.6187 97.7679C46.2131 97.4085 45.9662 96.9031 45.9318 96.3623C45.9008 95.8215 46.0845 95.2903 46.443 94.8841C46.8015 94.478 47.3058 94.2298 47.8463 94.1934L76.8088 92.4083C77.3499 92.3762 77.8817 92.5595 78.288 92.9182C78.6944 93.2769 78.9423 93.7818 78.9777 94.3227C79.0097 94.8644 78.8259 95.3968 78.4663 95.8033C78.1068 96.2097 77.6008 96.4572 77.0592 96.4915Z" fill="#ADADAD"/>
</g>
<g opacity="0.22">
<path opacity="0.22" d="M59.9191 40.6263L44.5997 41.5633C44.0589 41.5943 43.5277 41.4106 43.1216 41.0521C42.7154 40.6936 42.4672 40.1893 42.4309 39.6489C42.3999 39.1074 42.5841 38.5756 42.9434 38.1694C43.3028 37.7631 43.8081 37.5153 44.3493 37.48L59.6686 36.5349C60.2093 36.5028 60.7407 36.6863 61.1464 37.0451C61.5521 37.4039 61.7992 37.9088 61.8335 38.4493C61.8678 38.9917 61.6855 39.5256 61.3265 39.9338C60.9676 40.3419 60.4614 40.591 59.9191 40.6263Z" fill="#ADADAD"/>
</g>
<g opacity="0.22">
<path opacity="0.22" d="M70.4116 48.1143L45.1002 49.6733C44.5588 49.7064 44.0265 49.5235 43.6198 49.1646C43.2132 48.8057 42.9656 48.3001 42.9313 47.7589C42.8993 47.2171 43.0831 46.6847 43.4427 46.2783C43.8022 45.8718 44.3082 45.6243 44.8498 45.59L70.1572 44.031C70.6985 43.9978 71.2309 44.1808 71.6375 44.5397C72.0441 44.8986 72.2917 45.4041 72.326 45.9454C72.3581 46.4865 72.1748 47.0183 71.8161 47.4247C71.4574 47.831 70.9525 48.0789 70.4116 48.1143Z" fill="#ADADAD"/>
</g>
<g opacity="0.22">
<path opacity="0.22" d="M82.5405 55.5013L45.6012 57.7792C45.0584 57.8124 44.5245 57.6292 44.1165 57.2696C43.7085 56.91 43.4596 56.4035 43.4242 55.8608C43.3922 55.3201 43.5756 54.7888 43.9344 54.383C44.2932 53.9773 44.7981 53.7302 45.3387 53.6959L82.282 51.414C82.823 51.383 83.3544 51.5674 83.76 51.9268C84.1656 52.2863 84.4125 52.7916 84.4468 53.3324C84.479 53.8722 84.2967 54.4029 83.9398 54.809C83.5828 55.2151 83.0799 55.4639 82.5405 55.5013Z" fill="#ADADAD"/>
</g>
<g opacity="0.22">
<path opacity="0.22" d="M83.0418 63.6032L61.5672 64.928C61.0261 64.9601 60.4944 64.7767 60.088 64.418C59.6816 64.0593 59.4337 63.5544 59.3984 63.0135C59.3652 62.4722 59.5481 61.9398 59.907 61.5332C60.2659 61.1266 60.7715 60.879 61.3128 60.8447L82.7873 59.52C83.3287 59.4868 83.8611 59.6697 84.2677 60.0286C84.6743 60.3875 84.9219 60.8931 84.9562 61.4344C84.9883 61.9754 84.805 62.5072 84.4463 62.9136C84.0876 63.32 83.5826 63.5679 83.0418 63.6032Z" fill="#ADADAD"/>
</g>
<g opacity="0.22">
<path opacity="0.22" d="M51.7159 65.5338L46.0979 65.8811C45.5572 65.9132 45.0259 65.7297 44.6201 65.3709C44.2144 65.0122 43.9673 64.5072 43.933 63.9667C43.901 63.4256 44.0843 62.8938 44.443 62.4875C44.8017 62.0811 45.3066 61.8332 45.8475 61.7979L51.4655 61.4505C52.007 61.4195 52.5387 61.6038 52.945 61.9631C53.3512 62.3224 53.599 62.8277 53.6344 63.369C53.6653 63.91 53.4809 64.4414 53.1215 64.847C52.7621 65.2525 52.2568 65.4995 51.7159 65.5338Z" fill="#ADADAD"/>
</g>
<g opacity="0.22">
<path opacity="0.22" d="M83.542 71.7052L46.5987 73.9831C46.0577 74.0151 45.5259 73.8318 45.1195 73.4731C44.7131 73.1145 44.4652 72.6095 44.4299 72.0686C44.3989 71.5272 44.5831 70.9954 44.9425 70.5891C45.3018 70.1829 45.8071 69.9351 46.3483 69.8998L83.2876 67.6219C83.8293 67.5898 84.3617 67.7737 84.7682 68.1332C85.1747 68.4928 85.4222 68.9987 85.4565 69.5403C85.4885 70.081 85.3051 70.6123 84.9463 71.0181C84.5875 71.4238 84.0826 71.6708 83.542 71.7052Z" fill="#ADADAD"/>
</g>
<g opacity="0.22">
<path opacity="0.22" d="M69.7852 80.6876L47.099 82.0891C46.5575 82.12 46.0257 81.9358 45.6195 81.5765C45.2132 81.2171 44.9655 80.7118 44.9301 80.1706C44.8992 79.6295 45.0835 79.0982 45.443 78.6926C45.8024 78.287 46.3077 78.0401 46.8486 78.0058L69.5348 76.6043C70.0758 76.5733 70.6071 76.7577 71.0127 77.1171C71.4183 77.4766 71.6653 77.9819 71.6996 78.5228C71.7327 79.0637 71.5497 79.5956 71.1907 80.0016C70.8316 80.4076 70.3261 80.6543 69.7852 80.6876Z" fill="#ADADAD"/>
</g>
<g opacity="0.22">
<path opacity="0.22" d="M84.0384 79.8112L77.9802 80.1827C77.4395 80.2148 76.9082 80.0314 76.5024 79.6726C76.0967 79.3138 75.8497 78.8089 75.8154 78.2683C75.7822 77.727 75.9651 77.1946 76.324 76.788C76.6829 76.3814 77.1885 76.1338 77.7298 76.0995L83.788 75.7279C84.3294 75.6947 84.8618 75.8777 85.2684 76.2366C85.675 76.5955 85.9226 77.101 85.9569 77.6423C85.9879 78.1838 85.8036 78.7156 85.4443 79.1218C85.085 79.528 84.5797 79.7758 84.0384 79.8112Z" fill="#ADADAD"/>
</g>
<g opacity="0.22">
<path opacity="0.22" d="M84.54 87.913L47.6007 90.1909C47.0596 90.223 46.5278 90.0397 46.1214 89.681C45.7151 89.3223 45.4672 88.8174 45.4318 88.2765C45.3997 87.7355 45.583 87.2037 45.9417 86.7973C46.3004 86.3909 46.8054 86.143 47.3462 86.1077L84.2895 83.8298C84.8302 83.7977 85.3616 83.9811 85.7673 84.3399C86.173 84.6987 86.4201 85.2037 86.4544 85.7442C86.4875 86.2855 86.3046 86.8179 85.9457 87.2245C85.5868 87.6311 85.0812 87.8788 84.54 87.913Z" fill="#ADADAD"/>
</g>
<path opacity="0.22" d="M74.9553 29.1357L75.5571 38.8774C75.5947 39.4917 75.7529 40.0925 76.0227 40.6455C76.2925 41.1986 76.6686 41.6931 77.1295 42.1008C77.5905 42.5085 78.1272 42.8214 78.7091 43.0216C79.291 43.2218 79.9066 43.3054 80.5208 43.2677L90.2747 42.6659L74.9553 29.1357Z" fill="#ADADAD"/>
<path opacity="0.5" d="M63.558 53.4374C63.5519 52.9706 63.4523 52.5097 63.2651 52.082C63.0779 51.6544 62.8068 51.2685 62.468 50.9474C62.1291 50.6262 61.7293 50.3762 61.2922 50.2122C60.8551 50.0481 60.3895 49.9734 59.923 49.9923H27.5719C25.1203 49.9923 22.7253 51.9835 22.2649 54.435L9.49807 119.844C9.02149 122.296 10.6209 124.287 13.0724 124.287H115.659C118.111 124.287 120.486 122.3 120.966 119.844L131.495 65.9256C131.972 63.4699 130.373 61.4828 127.921 61.4828H72.1002C67.2535 61.4828 63.7236 58.1467 63.558 53.4374Z" fill="#ADADAD"/>
<g filter="url(#filter0_d)">
<path d="M87.4658 55.6562L85.2092 52.2727L82.8194 56.385C82.8194 56.385 84.946 58.1428 87.4652 57.3863L87.4658 55.6562Z" fill="#FFC3BD"/>
<path d="M101.406 67.7984L101.917 67.8586C102.013 67.8777 102.096 67.8264 102.098 67.7641L102.102 65.6006C102.091 65.561 102.067 65.5261 102.034 65.5015C102.001 65.4769 101.961 65.4641 101.92 65.465L101.409 65.4048C101.308 65.3847 101.225 65.436 101.228 65.4993L101.224 67.6627C101.225 67.7361 101.309 67.7894 101.406 67.7984Z" fill="#ADADAD"/>
<path d="M100.761 84.3714L109.975 53.3785L104.717 47.3829L86.1143 41.8524L75.6853 76.915L100.761 84.3714Z" fill="#ADADAD"/>
<path opacity="0.8" d="M100.761 84.3714L109.975 53.3785L104.717 47.3829L86.1143 41.8524L75.6853 76.915L100.761 84.3714Z" fill="white"/>
<path d="M109.975 53.3784L104.717 47.3828L105.209 53.3985L109.975 53.3784Z" fill="#ADADAD"/>
<path d="M76.8045 82.8783C81.0799 83.7325 85.2383 80.9591 86.0924 76.6837C86.9466 72.4083 84.1731 68.25 79.8978 67.3958C75.6224 66.5416 71.4641 69.3151 70.6099 73.5904C69.7557 77.8658 72.5292 82.0242 76.8045 82.8783Z" fill="#ADADAD"/>
<path d="M81.2097 80.7395C84.307 79.1606 85.5379 75.3697 83.9589 72.2723C82.38 69.175 78.5891 67.9441 75.4918 69.5231C72.3944 71.1021 71.1636 74.893 72.7425 77.9903C74.3215 81.0876 78.1124 82.3185 81.2097 80.7395Z" fill="white"/>
<path d="M82.2742 75.3562L79.613 74.4952L80.474 71.834L78.5698 71.2131L77.7088 73.8743L75.0486 73.0083L74.4266 74.9175L77.0869 75.7835L76.2219 78.4388L78.1311 79.0607L78.9921 76.3994L81.6523 77.2655L82.2742 75.3562Z" fill="#ADADAD"/>
<path opacity="0.4" d="M104.033 58.9975C103.953 59.2687 103.82 59.5215 103.641 59.7413C103.463 59.9611 103.243 60.1436 102.994 60.2784C102.746 60.4132 102.473 60.4976 102.191 60.5268C101.91 60.556 101.625 60.5295 101.354 60.4487L87.7846 56.4151C87.2375 56.2514 86.7776 55.8776 86.5056 55.3755C86.2336 54.8733 86.1716 54.2839 86.3334 53.7362C86.4138 53.4649 86.547 53.2122 86.7252 52.9924C86.9034 52.7726 87.1232 52.5901 87.372 52.4553C87.6208 52.3205 87.8937 52.2361 88.1752 52.2069C88.4566 52.1776 88.7411 52.2042 89.0123 52.285L102.582 56.3186C102.853 56.399 103.106 56.5322 103.326 56.7104C103.546 56.8886 103.728 57.1084 103.863 57.3572C103.998 57.606 104.082 57.8789 104.111 58.1604C104.14 58.4418 104.114 58.7263 104.033 58.9975Z" fill="#ADADAD"/>
<path opacity="0.4" d="M98.1825 63.7615C98.1021 64.0328 97.9689 64.2855 97.7907 64.5053C97.6125 64.7251 97.3927 64.9076 97.1439 65.0424C96.8951 65.1772 96.6222 65.2616 96.3407 65.2908C96.0593 65.32 95.7748 65.2935 95.5037 65.2127L86.0199 62.3927C85.7486 62.3123 85.4959 62.1791 85.2761 62.0009C85.0563 61.8227 84.8738 61.6029 84.739 61.3541C84.6042 61.1053 84.5198 60.8324 84.4906 60.5509C84.4614 60.2695 84.4879 59.985 84.5687 59.7138C84.6491 59.4425 84.7823 59.1898 84.9605 58.97C85.1387 58.7502 85.3585 58.5677 85.6073 58.4329C85.8561 58.2981 86.129 58.2137 86.4105 58.1845C86.6919 58.1553 86.9764 58.1818 87.2476 58.2626L96.7303 61.0876C97.2765 61.2511 97.7357 61.6241 98.0078 62.1251C98.2799 62.6261 98.3427 63.2143 98.1825 63.7615Z" fill="#ADADAD"/>
</g>
<path d="M96.6571 144C139.906 144 174.966 141.953 174.966 139.428C174.966 136.903 139.906 134.856 96.6571 134.856C53.4081 134.856 18.3479 136.903 18.3479 139.428C18.3479 141.953 53.4081 144 96.6571 144Z" fill="#F5F5F5"/>
<path d="M143.164 36.7444C143.73 38.6387 146.646 42.1848 146.876 44.7656C147.106 47.3464 142.134 51.4741 142.134 51.4741C142.134 51.4741 138.419 39.0506 140.745 37.6007C143.071 36.1507 143.164 36.7444 143.164 36.7444Z" fill="#263238"/>
<path d="M132.955 50.1655C132.074 50.9006 131.21 51.5185 130.309 52.1526C129.409 52.7867 128.48 53.3643 127.535 53.9055C126.586 54.4667 125.609 54.9776 124.607 55.4362C124.098 55.6664 123.593 55.8926 123.068 56.0905C122.809 56.1955 122.547 56.2965 122.28 56.3853L121.472 56.668C120.782 56.8611 120.059 56.9133 119.348 56.8215C118.754 56.752 118.165 56.6386 117.587 56.4822C116.51 56.1842 115.456 55.809 114.433 55.3595C112.447 54.4923 110.531 53.4728 108.702 52.3101L109.457 50.9046C110.41 51.3085 111.387 51.7124 112.357 52.0638C113.326 52.4151 114.304 52.7867 115.281 53.0896C116.234 53.4019 117.205 53.6555 118.189 53.8489C118.641 53.9373 119.098 53.9926 119.558 54.0145C119.901 54.0411 120.246 54.0055 120.576 53.9095C121.497 53.5569 122.398 53.1524 123.274 52.6979C123.722 52.4636 124.166 52.2253 124.603 51.9668C125.039 51.7083 125.483 51.4579 125.915 51.1914C126.784 50.6542 127.632 50.0847 128.472 49.4991C129.312 48.9135 130.148 48.2874 130.895 47.6937L132.955 50.1655Z" fill="#E6E6E6"/>
<path d="M135.087 45.8642C134.085 45.0806 129.941 47.6453 128.685 48.7156L129.602 54.2609C129.602 54.2609 135.559 51.7649 135.915 50.0605C136.29 48.2794 135.834 46.4619 135.087 45.8642Z" fill="#ADADAD"/>
<path opacity="0.2" d="M135.087 45.8642C134.085 45.0806 129.941 47.6453 128.685 48.7156L129.602 54.2609C129.602 54.2609 135.559 51.7649 135.915 50.0605C136.29 48.2794 135.834 46.4619 135.087 45.8642Z" fill="black"/>
<path d="M149.025 62.6456L136.448 65.0971C129.949 47.4999 131.363 46.9223 131.363 46.9223C132.277 46.4201 133.221 45.975 134.19 45.5895L134.36 45.5249C135.167 45.2301 135.329 45.1856 136.403 44.8706C138.253 44.4304 139.978 44.0628 142.114 43.7599L142.518 43.7034C142.922 43.6549 143.29 43.6145 143.661 43.5782C143.912 43.5499 144.162 43.5338 144.4 43.5176L145.208 43.4732C146.589 43.4045 147.579 43.4247 147.579 43.4247C147.195 54.4144 147.817 57.5687 149.025 62.6456Z" fill="#ADADAD"/>
<path opacity="0.2" d="M149.025 62.6456L136.448 65.0971C129.949 47.4999 131.363 46.9223 131.363 46.9223C132.277 46.4201 133.221 45.975 134.19 45.5895L134.36 45.5249C135.167 45.2301 135.329 45.1856 136.403 44.8706C138.253 44.4304 139.978 44.0628 142.114 43.7599L142.518 43.7034C142.922 43.6549 143.29 43.6145 143.661 43.5782C143.912 43.5499 144.162 43.5338 144.4 43.5176L145.208 43.4732C146.589 43.4045 147.579 43.4247 147.579 43.4247C147.195 54.4144 147.817 57.5687 149.025 62.6456Z" fill="black"/>
<path d="M139.175 38.0086C138.367 39.3454 141.295 39.9634 143.028 38.5942C144.413 37.4956 144.086 34.9592 142.898 34.3696C141.711 33.7799 139.175 38.0086 139.175 38.0086Z" fill="#ADADAD"/>
<path opacity="0.4" d="M139.175 38.0086C138.367 39.3454 141.295 39.9634 143.028 38.5942C144.413 37.4956 144.086 34.9592 142.898 34.3696C141.711 33.7799 139.175 38.0086 139.175 38.0086Z" fill="black"/>
<path d="M151.416 135.482L148.269 135.716L147.118 128.475L150.265 128.24L151.416 135.482Z" fill="#E6E6E6"/>
<path d="M173.67 125.361L171 127.041L166.247 121.403L168.916 119.719L173.67 125.361Z" fill="#E6E6E6"/>
<path d="M147.118 128.475L147.757 132.497L150.858 131.976L150.269 128.244L147.118 128.475Z" fill="#CF6F64"/>
<path d="M168.92 119.722L166.247 121.403L168.218 123.737L170.948 122.126L168.92 119.722Z" fill="#CF6F64"/>
<path d="M136.642 65.0971C136.642 65.0971 136.597 90.0652 138.637 99.4676C140.761 109.25 147.009 131.504 147.009 131.504L151.541 130.918C151.541 130.918 147.999 108.438 146.488 98.7164C144.845 88.1225 145.854 63.3038 145.854 63.3038L136.642 65.0971Z" fill="#ADADAD"/>
<path opacity="0.7" d="M136.642 65.0971C136.642 65.0971 136.597 90.0652 138.637 99.4676C140.761 109.25 147.009 131.504 147.009 131.504L151.541 130.918C151.541 130.918 147.999 108.438 146.488 98.7164C144.845 88.1225 145.854 63.3038 145.854 63.3038L136.642 65.0971Z" fill="black"/>
<path opacity="0.5" d="M145.572 74.3703L143.351 72.157C143.436 81.7493 143.973 86.4869 145.819 91.6485C145.528 86.192 145.504 79.738 145.572 74.3703Z" fill="black"/>
<path d="M139.768 64.4509C139.768 64.4509 146.541 85.0853 149.901 96.9716C153.447 109.512 167.042 123.382 167.042 123.382L170.943 121.128C170.943 121.128 161.654 107.961 158.237 96.2608C151.29 72.5084 154.146 67.476 149.021 62.6455L139.768 64.4509Z" fill="#ADADAD"/>
<path opacity="0.7" d="M139.768 64.4509C139.768 64.4509 146.541 85.0853 149.901 96.9716C153.447 109.512 167.042 123.382 167.042 123.382L170.943 121.128C170.943 121.128 161.654 107.961 158.237 96.2608C151.29 72.5084 154.146 67.476 149.021 62.6455L139.768 64.4509Z" fill="black"/>
<path d="M134.444 30.7225C136.246 31.3243 137.881 35.7953 137.95 37.5562C138.019 39.3171 132.732 41.7445 132.732 41.7445C132.732 41.7445 130.401 36.0901 131.052 32.4551C131.334 30.876 134.444 30.7225 134.444 30.7225Z" fill="#263238"/>
<path d="M109.723 51.054L107.587 48.7277L106.888 51.6437C106.888 51.6437 108.407 52.9846 109.634 52.5242L109.723 51.054Z" fill="#E6E6E6"/>
<path d="M105.422 48.0613L103.927 49.2487L106.888 51.6437L107.586 48.7277L105.422 48.0613Z" fill="#E6E6E6"/>
<path d="M170.164 126.439L172.66 123.923C172.703 123.88 172.761 123.854 172.821 123.849C172.882 123.845 172.943 123.862 172.991 123.899L175.265 125.587C175.322 125.631 175.368 125.687 175.401 125.75C175.434 125.813 175.454 125.883 175.458 125.954C175.462 126.026 175.451 126.097 175.425 126.164C175.4 126.231 175.36 126.292 175.31 126.342C174.421 127.202 173.953 127.574 172.854 128.681C172.18 129.363 171.263 130.425 170.33 131.366C169.397 132.307 168.415 131.431 168.714 130.963C170.075 128.834 169.833 128.038 169.926 126.956C169.94 126.76 170.025 126.577 170.164 126.439Z" fill="#263238"/>
<path d="M148.06 135.264H151.606C151.668 135.264 151.729 135.286 151.777 135.325C151.825 135.365 151.857 135.421 151.869 135.482L152.426 138.285C152.438 138.354 152.435 138.425 152.417 138.492C152.399 138.56 152.367 138.623 152.321 138.677C152.276 138.73 152.22 138.773 152.156 138.803C152.093 138.832 152.023 138.847 151.953 138.846C150.713 138.826 150.116 138.753 148.557 138.753C147.599 138.753 145.62 138.85 144.296 138.85C142.971 138.85 142.83 137.542 143.375 137.425C145.798 136.892 146.747 136.161 147.543 135.458C147.687 135.334 147.87 135.266 148.06 135.264Z" fill="#263238"/>
<g style="mix-blend-mode:multiply" opacity="0.27">
<path d="M147.987 49.7939L146.048 50.9491L148.286 59.362C147.797 56.8135 148.015 54.0145 147.987 49.7939Z" fill="#ADADAD"/>
</g>
<path d="M136.969 36.6596C138.346 37.8107 140.345 39.4868 142.7 37.528C144.72 35.8397 146.133 31.4091 142.51 31.2476C140.616 31.1627 136.969 36.6596 136.969 36.6596Z" fill="#263238"/>
<path d="M140.297 37.4471C140.297 39.3535 140.592 42.7905 142.114 43.7679C142.114 43.7679 141.977 45.7308 138.56 46.3932C134.808 47.1242 136.403 44.8786 136.403 44.8786C138.358 43.9901 138.019 42.4795 137.373 41.1225L140.297 37.4471Z" fill="#E6E6E6"/>
<path d="M139.105 38.9456L137.377 41.1225C137.528 41.4371 137.652 41.7641 137.748 42.0999C138.508 41.8333 139.416 40.7671 139.34 39.931C139.323 39.5909 139.244 39.2568 139.105 38.9456Z" fill="#CF6F64"/>
<path d="M140.479 33.0691C140.882 36.175 141.129 37.4795 139.885 39.3576C138.015 42.1848 134.113 42.003 132.785 39.0829C131.573 36.4536 131.121 31.813 133.883 30.0157C134.491 29.6136 135.191 29.3736 135.917 29.3186C136.644 29.2636 137.372 29.3954 138.033 29.7014C138.694 30.0075 139.266 30.4776 139.694 31.0671C140.122 31.6565 140.392 32.3457 140.479 33.0691Z" fill="#E6E6E6"/>
<path d="M135.083 27.6287C132.983 29.1191 137.195 29.5593 137.199 31.7201C137.199 32.6127 138.665 35.4439 140.749 35.2824L142.769 31.6959C144.893 28.2629 139.873 24.224 135.083 27.6287Z" fill="#263238"/>
<path d="M135.083 27.6287C131.387 27.4349 129.776 30.3751 130.2 33.0165C132.778 32.3738 135.445 32.1622 138.092 32.3905C143.156 32.9075 135.083 27.6287 135.083 27.6287Z" fill="#263238"/>
<path d="M141.488 35.7468C141.54 36.3497 141.349 36.9482 140.959 37.4108C140.438 38.0207 139.748 37.6612 139.505 36.9383C139.299 36.284 139.323 35.1814 140.026 34.8341C140.181 34.7622 140.352 34.7302 140.523 34.7409C140.694 34.7516 140.859 34.8046 141.004 34.8952C141.149 34.9857 141.269 35.111 141.354 35.2597C141.438 35.4084 141.485 35.5758 141.488 35.7468Z" fill="#E6E6E6"/>
<path d="M135.992 34.8341C136.04 35.0845 135.947 35.3106 135.786 35.343C135.624 35.3753 135.45 35.1976 135.402 34.9391C135.354 34.6806 135.446 34.4584 135.608 34.4261C135.77 34.3938 135.943 34.5837 135.992 34.8341Z" fill="#263238"/>
<path d="M133.169 35.3833C133.217 35.6337 133.125 35.8639 132.963 35.8963C132.801 35.9286 132.628 35.7509 132.579 35.4924C132.531 35.2339 132.624 35.0118 132.785 34.9835C132.947 34.9552 133.12 35.1289 133.169 35.3833Z" fill="#263238"/>
<path d="M132.861 34.9875L132.227 34.935C132.227 34.935 132.627 35.3429 132.861 34.9875Z" fill="#263238"/>
<path d="M134 35.6701C133.887 36.2819 133.691 36.8756 133.418 37.4351C133.563 37.5026 133.721 37.5376 133.881 37.5376C134.041 37.5376 134.199 37.5026 134.343 37.4351L134 35.6701Z" fill="#DF5753"/>
<path d="M135.398 38.2428C135.38 38.2431 135.364 38.2371 135.35 38.226C135.337 38.2149 135.328 38.1993 135.325 38.1822C135.323 38.1727 135.324 38.1629 135.326 38.1534C135.328 38.1439 135.332 38.1349 135.338 38.127C135.343 38.1191 135.35 38.1124 135.359 38.1073C135.367 38.1022 135.376 38.0989 135.386 38.0974C135.698 38.0431 135.993 37.9161 136.247 37.7266C136.501 37.5372 136.707 37.2906 136.848 37.0069C136.852 36.9979 136.857 36.9897 136.864 36.9828C136.871 36.9759 136.879 36.9704 136.888 36.9667C136.897 36.9629 136.907 36.961 136.916 36.9609C136.926 36.9609 136.936 36.9628 136.945 36.9665C136.954 36.9702 136.962 36.9757 136.969 36.9826C136.976 36.9895 136.981 36.9976 136.985 37.0066C136.989 37.0156 136.991 37.0253 136.991 37.035C136.991 37.0448 136.989 37.0544 136.985 37.0635C136.837 37.3718 136.617 37.6399 136.344 37.8452C136.07 38.0505 135.751 38.1869 135.414 38.2428H135.398Z" fill="#263238"/>
<path d="M136.642 33.7598C136.605 33.7602 136.569 33.7473 136.541 33.7234C136.405 33.5943 136.24 33.4991 136.061 33.4458C135.881 33.3924 135.691 33.3824 135.507 33.4165C135.466 33.4266 135.423 33.4202 135.387 33.3986C135.351 33.377 135.325 33.3421 135.315 33.3013C135.305 33.2606 135.311 33.2176 135.333 33.1816C135.354 33.1456 135.389 33.1197 135.43 33.1095C135.663 33.0637 135.904 33.0738 136.132 33.1391C136.36 33.2044 136.569 33.323 136.743 33.4851C136.77 33.5131 136.786 33.5508 136.786 33.5901C136.786 33.6294 136.77 33.6672 136.743 33.6951C136.731 33.7125 136.717 33.7272 136.699 33.7383C136.682 33.7495 136.662 33.7568 136.642 33.7598Z" fill="#263238"/>
<path d="M131.605 34.3211C131.586 34.3253 131.567 34.3253 131.548 34.3211C131.53 34.3136 131.513 34.3025 131.499 34.2884C131.485 34.2743 131.474 34.2576 131.466 34.2391C131.459 34.2207 131.455 34.2009 131.455 34.181C131.456 34.1611 131.46 34.1414 131.468 34.1232C131.554 33.9023 131.691 33.7052 131.869 33.5485C132.047 33.3918 132.26 33.28 132.489 33.2225C132.509 33.2184 132.529 33.2184 132.548 33.2224C132.568 33.2263 132.586 33.2342 132.603 33.2456C132.619 33.2569 132.633 33.2715 132.643 33.2884C132.653 33.3052 132.66 33.3241 132.663 33.3437C132.667 33.3628 132.667 33.3826 132.664 33.4018C132.66 33.421 132.652 33.4392 132.642 33.4554C132.631 33.4716 132.617 33.4855 132.6 33.4961C132.584 33.5068 132.565 33.514 132.546 33.5173C132.365 33.5669 132.197 33.658 132.057 33.7834C131.917 33.9089 131.808 34.0654 131.738 34.2403C131.725 34.2644 131.706 34.2847 131.683 34.2989C131.659 34.3131 131.632 34.3207 131.605 34.3211Z" fill="#263238"/>
<path d="M169.228 127.905C169.159 127.903 169.091 127.885 169.03 127.851C168.97 127.817 168.918 127.769 168.88 127.711C168.852 127.677 168.833 127.636 168.825 127.592C168.817 127.548 168.821 127.503 168.836 127.461C168.977 127.081 170.092 126.839 170.217 126.811C170.232 126.808 170.247 126.81 170.26 126.816C170.274 126.821 170.286 126.831 170.294 126.843C170.303 126.855 170.307 126.869 170.307 126.883C170.307 126.898 170.303 126.912 170.294 126.924C170.076 127.283 169.648 127.885 169.248 127.905H169.228ZM170.072 126.996C169.632 127.11 169.05 127.311 168.977 127.513C168.97 127.532 168.969 127.552 168.973 127.572C168.977 127.591 168.987 127.609 169.002 127.622C169.027 127.664 169.062 127.698 169.105 127.722C169.147 127.745 169.195 127.757 169.244 127.756C169.458 127.744 169.761 127.465 170.072 126.996Z" fill="#ADADAD"/>
<path d="M169.89 126.996C169.486 126.996 168.981 126.895 168.831 126.677C168.798 126.628 168.783 126.568 168.788 126.509C168.793 126.449 168.818 126.393 168.86 126.35C168.895 126.305 168.94 126.268 168.991 126.242C169.041 126.215 169.097 126.2 169.155 126.197H169.187C169.639 126.197 170.261 126.807 170.285 126.831C170.295 126.84 170.302 126.852 170.306 126.864C170.309 126.877 170.309 126.891 170.306 126.904C170.302 126.916 170.295 126.927 170.286 126.937C170.277 126.946 170.266 126.952 170.253 126.956C170.134 126.985 170.012 126.998 169.89 126.996ZM169.187 126.346H169.163C169.126 126.347 169.091 126.357 169.059 126.374C169.027 126.39 168.999 126.414 168.977 126.443C168.92 126.52 168.936 126.564 168.957 126.593C169.078 126.778 169.696 126.883 170.075 126.839C169.833 126.592 169.524 126.421 169.187 126.346Z" fill="#ADADAD"/>
<path d="M146.9 135.817C146.629 135.841 146.357 135.773 146.129 135.623C146.075 135.581 146.033 135.526 146.006 135.463C145.979 135.401 145.969 135.332 145.975 135.264C145.975 135.223 145.986 135.183 146.005 135.148C146.025 135.113 146.054 135.083 146.089 135.062C146.46 134.844 147.761 135.49 147.906 135.563C147.92 135.57 147.931 135.581 147.938 135.595C147.945 135.609 147.948 135.624 147.946 135.64C147.945 135.655 147.938 135.669 147.928 135.681C147.918 135.692 147.905 135.7 147.89 135.704C147.564 135.772 147.233 135.81 146.9 135.817ZM146.303 135.163C146.255 135.16 146.208 135.17 146.165 135.191C146.152 135.198 146.14 135.21 146.133 135.223C146.126 135.237 146.123 135.253 146.125 135.268C146.121 135.314 146.128 135.359 146.146 135.402C146.163 135.444 146.191 135.481 146.226 135.51C146.428 135.684 146.949 135.712 147.635 135.599C147.219 135.381 146.768 135.233 146.303 135.163Z" fill="#ADADAD"/>
<path d="M147.874 135.696H147.846C147.442 135.522 146.662 134.836 146.719 134.484C146.719 134.404 146.792 134.299 146.994 134.279H147.054C147.757 134.279 147.939 135.563 147.947 135.619C147.949 135.633 147.947 135.647 147.942 135.659C147.937 135.672 147.929 135.683 147.919 135.692C147.904 135.698 147.889 135.699 147.874 135.696ZM147.066 134.42H147.022C146.893 134.42 146.885 134.48 146.885 134.497C146.852 134.711 147.385 135.248 147.789 135.486C147.708 135.171 147.503 134.428 147.05 134.428L147.066 134.42Z" fill="#ADADAD"/>
<path d="M135.685 34.4383L135.051 34.3817C135.051 34.3817 135.451 34.7937 135.685 34.4383Z" fill="#263238"/>
<path d="M138.459 49.079C131.702 50.5855 133.79 46.4982 134.194 45.5976L134.364 45.5329C135.171 45.2381 135.333 45.1937 136.407 44.8787C138.282 44.3726 140.19 44.0014 142.118 43.768L142.522 43.7114C142.926 43.6589 143.294 43.6185 143.665 43.5862C143.915 43.558 144.166 43.5418 144.404 43.5256L145.212 43.4772C145.349 44.1072 145.684 47.4756 138.459 49.079Z" fill="#E6E6E6"/>
<path d="M149.065 61.8701L149.853 62.8878C149.914 62.9646 149.829 63.0736 149.683 63.1019L136.492 65.6706C136.379 65.6948 136.274 65.6706 136.254 65.5858L135.919 64.4832C135.919 64.4065 135.984 64.3216 136.105 64.2974L148.843 61.8176C148.882 61.8062 148.922 61.8051 148.961 61.8143C149 61.8235 149.036 61.8428 149.065 61.8701Z" fill="#26395A"/>
<path d="M147.632 63.627L147.975 63.5623C148.044 63.5623 148.088 63.5058 148.076 63.4614L147.632 62.0316C147.632 61.9872 147.551 61.967 147.483 61.9791L147.143 62.0437C147.075 62.0437 147.03 62.1043 147.042 62.1447L147.487 63.5785C147.499 63.6189 147.567 63.6431 147.632 63.627Z" fill="#ADADAD"/>
<path d="M139.905 68.3928L137.276 67.4154L137.68 69.9155C137.68 69.9155 139.586 70.602 140.559 69.7216L139.905 68.3928Z" fill="#E6E6E6"/>
<path d="M134.772 68.0778L134.146 69.7175L137.68 69.9155L137.276 67.4154L134.772 68.0778Z" fill="#E6E6E6"/>
<path d="M137.474 65.606L137.817 65.5414C137.882 65.5414 137.93 65.4849 137.914 65.4404L137.47 64.0107C137.47 63.9662 137.393 63.9461 137.324 63.9582L136.981 64.0228C136.912 64.0228 136.868 64.0834 136.884 64.1238L137.328 65.5576C137.34 65.5979 137.405 65.6222 137.474 65.606Z" fill="#ADADAD"/>
<path d="M142.555 64.6125L142.894 64.5479C142.963 64.5479 143.008 64.4913 142.995 64.4469L142.551 63.0172C142.551 62.9727 142.47 62.9525 142.402 62.9646L142.062 63.0293C141.994 63.0293 141.949 63.0899 141.961 63.1302L142.406 64.564C142.422 64.5874 142.445 64.6048 142.472 64.6136C142.499 64.6223 142.528 64.622 142.555 64.6125Z" fill="#ADADAD"/>
<path d="M141.117 42.1646C141.404 42.0555 141.763 43.0653 141.674 43.1945C141.468 43.4893 137.696 44.5192 137.527 43.9417C137.516 43.6286 137.564 43.3163 137.668 43.0208C137.777 42.827 138.613 43.1824 141.117 42.1646Z" fill="#ADADAD"/>
<path d="M140.479 42.1888C140.624 41.8536 141.04 41.3164 141.404 41.6234C141.767 41.9303 141.92 42.5927 141.682 42.7017C141.444 42.8108 140.228 42.7502 140.479 42.1888Z" fill="#ADADAD"/>
<path d="M141.25 42.3625C141.5 42.0959 142.058 41.7284 142.312 42.1403C142.567 42.5523 142.474 43.2268 142.215 43.247C141.957 43.2672 140.826 42.8027 141.25 42.3625Z" fill="#ADADAD"/>
<path d="M141.387 42.3018C141.367 42.0871 141.409 41.8711 141.509 41.6798C141.608 41.4884 141.761 41.33 141.949 41.2235C142.409 40.9246 142.857 40.7307 143.035 40.4157C143.112 40.7111 143.127 41.019 143.08 41.3204C142.987 41.7526 141.553 42.0838 141.65 42.4594L141.387 42.3018Z" fill="#ADADAD"/>
<path d="M141.327 42.2817C141.193 42.1121 141.111 41.9075 141.091 41.6925C141.071 41.4775 141.114 41.2613 141.214 41.07C141.432 40.5692 141.706 40.1653 141.69 39.8099C141.915 40.0165 142.095 40.2666 142.219 40.5449C142.373 40.9488 141.351 42.011 141.638 42.2776L141.327 42.2817Z" fill="#ADADAD"/>
<path d="M169.417 121.181C169.408 121.18 169.4 121.178 169.393 121.174C169.386 121.169 169.38 121.163 169.376 121.156C169.283 121.027 160.051 107.852 156.666 96.277C154.457 88.852 152.76 81.2843 151.585 73.6272C150.886 69.3137 150.462 66.7087 149.073 64.5721C149.064 64.5623 149.058 64.5493 149.058 64.5358C149.058 64.5222 149.064 64.5092 149.073 64.4994C149.083 64.4912 149.095 64.4866 149.107 64.4866C149.12 64.4866 149.132 64.4912 149.142 64.4994C150.547 66.6562 150.971 69.2693 151.67 73.5949C152.85 81.241 154.55 88.7977 156.759 96.2124C160.139 107.772 169.364 120.93 169.457 121.063C169.465 121.073 169.469 121.085 169.469 121.098C169.469 121.11 169.465 121.122 169.457 121.132C169.456 121.143 169.452 121.154 169.445 121.163C169.438 121.172 169.428 121.178 169.417 121.181Z" fill="#ADADAD"/>
<path opacity="0.4" d="M169.417 121.181C169.408 121.18 169.4 121.178 169.393 121.174C169.386 121.169 169.38 121.163 169.376 121.156C169.283 121.027 160.051 107.852 156.666 96.277C154.457 88.852 152.76 81.2843 151.585 73.6272C150.886 69.3137 150.462 66.7087 149.073 64.5721C149.064 64.5623 149.058 64.5493 149.058 64.5358C149.058 64.5222 149.064 64.5092 149.073 64.4994C149.083 64.4912 149.095 64.4866 149.107 64.4866C149.12 64.4866 149.132 64.4912 149.142 64.4994C150.547 66.6562 150.971 69.2693 151.67 73.5949C152.85 81.241 154.55 88.7977 156.759 96.2124C160.139 107.772 169.364 120.93 169.457 121.063C169.465 121.073 169.469 121.085 169.469 121.098C169.469 121.11 169.465 121.122 169.457 121.132C169.456 121.143 169.452 121.154 169.445 121.163C169.438 121.172 169.428 121.178 169.417 121.181Z" fill="black"/>
<path d="M152.353 130.902L146.181 131.702L145.778 129.981L152.203 128.62L152.353 130.902Z" fill="#ADADAD"/>
<path d="M171.271 120.991L166.72 123.62L165.185 122.307L170.165 118.939L171.271 120.991Z" fill="#ADADAD"/>
<path d="M149.909 47.7018C150.128 48.8246 150.253 49.8828 150.374 50.9773C150.495 52.0718 150.54 53.1542 150.572 54.2487C150.604 55.3519 150.58 56.4559 150.499 57.5566C150.455 58.1099 150.406 58.6632 150.33 59.2206C150.297 59.4952 150.261 59.7739 150.208 60.0526L150.059 60.9088C149.893 61.6067 149.59 62.2645 149.166 62.8434C148.819 63.3305 148.435 63.7908 148.019 64.2207C147.24 65.0212 146.403 65.7637 145.515 66.442C143.798 67.7644 141.98 68.9513 140.079 69.9922L139.215 68.6513C140.022 68.0091 140.83 67.3467 141.638 66.6722C142.446 65.9977 143.213 65.3152 143.952 64.6043C144.683 63.9202 145.372 63.1932 146.016 62.4274C146.312 62.0731 146.582 61.6978 146.824 61.3046C147.015 61.0181 147.151 60.6992 147.228 60.3636C147.359 59.3831 147.436 58.3961 147.458 57.4071C147.458 56.9023 147.458 56.3974 147.458 55.8926C147.458 55.3877 147.438 54.8748 147.413 54.3659C147.365 53.3481 147.272 52.3465 147.163 51.3125C147.054 50.2786 146.913 49.2567 146.759 48.2995L149.909 47.7018Z" fill="#E6E6E6"/>
<path d="M149.42 44.2688C151.145 45.6662 150.733 49.8181 150.733 49.8181L144.917 51.7326C144.917 51.7326 145.184 46.9465 145.474 45.226C145.814 43.1783 147.72 42.8915 149.42 44.2688Z" fill="#ADADAD"/>
<path opacity="0.2" d="M149.42 44.2688C151.145 45.6662 150.733 49.8181 150.733 49.8181L144.917 51.7326C144.917 51.7326 145.184 46.9465 145.474 45.226C145.814 43.1783 147.72 42.8915 149.42 44.2688Z" fill="black"/>
</g>
<defs>
<filter id="filter0_d" x="67.0632" y="40.1946" width="46.2103" height="47.7573" filterUnits="userSpaceOnUse" color-interpolation-filters="sRGB">
<feFlood flood-opacity="0" result="BackgroundImageFix"/>
<feColorMatrix in="SourceAlpha" type="matrix" values="0 0 0 0 0 0 0 0 0 0 0 0 0 0 0 0 0 0 127 0"/>
<feOffset dy="1"/>
<feGaussianBlur stdDeviation="1"/>
<feColorMatrix type="matrix" values="0 0 0 0 0 0 0 0 0 0 0 0 0 0 0 0 0 0 0.3 0"/>
<feBlend mode="normal" in2="BackgroundImageFix" result="effect1_dropShadow"/>
<feBlend mode="normal" in="SourceGraphic" in2="effect1_dropShadow" result="shape"/>
</filter>
</defs>
</svg>
