<svg width="19" height="19" viewBox="0 0 19 19" fill="none" xmlns="http://www.w3.org/2000/svg">
<path d="M5.7 0H13.3C14.8117 0 16.2616 0.600534 17.3305 1.66949C18.3995 2.73845 19 4.18827 19 5.7V13.3C19 14.8117 18.3995 16.2616 17.3305 17.3305C16.2616 18.3995 14.8117 19 13.3 19H5.7C4.18827 19 2.73845 18.3995 1.66949 17.3305C0.600534 16.2616 0 14.8117 0 13.3V5.7C0 4.18827 0.600534 2.73845 1.66949 1.66949C2.73845 0.600534 4.18827 0 5.7 0ZM11.4 8.55C11.148 8.55 10.9064 8.65009 10.7282 8.82825C10.5501 9.00641 10.45 9.24804 10.45 9.5C10.45 9.75196 10.5501 9.99359 10.7282 10.1718C10.9064 10.3499 11.148 10.45 11.4 10.45H14.25C14.502 10.45 14.7436 10.3499 14.9218 10.1718C15.0999 9.99359 15.2 9.75196 15.2 9.5C15.2 9.24804 15.0999 9.00641 14.9218 8.82825C14.7436 8.65009 14.502 8.55 14.25 8.55H11.4ZM9.5 12.35C9.24804 12.35 9.00641 12.4501 8.82825 12.6282C8.65009 12.8064 8.55 13.048 8.55 13.3C8.55 13.552 8.65009 13.7936 8.82825 13.9718C9.00641 14.1499 9.24804 14.25 9.5 14.25H14.25C14.502 14.25 14.7436 14.1499 14.9218 13.9718C15.0999 13.7936 15.2 13.552 15.2 13.3C15.2 13.048 15.0999 12.8064 14.9218 12.6282C14.7436 12.4501 14.502 12.35 14.25 12.35H9.5ZM9.5 4.75C9.24804 4.75 9.00641 4.85009 8.82825 5.02825C8.65009 5.20641 8.55 5.44804 8.55 5.7C8.55 5.95196 8.65009 6.19359 8.82825 6.37175C9.00641 6.54991 9.24804 6.65 9.5 6.65H14.25C14.502 6.65 14.7436 6.54991 14.9218 6.37175C15.0999 6.19359 15.2 5.95196 15.2 5.7C15.2 5.44804 15.0999 5.20641 14.9218 5.02825C14.7436 4.85009 14.502 4.75 14.25 4.75H9.5ZM5.5366 9.73085L4.86495 9.0592C4.77732 8.96847 4.67249 8.89609 4.55658 8.8463C4.44068 8.79651 4.31602 8.77031 4.18988 8.76921C4.06374 8.76812 3.93865 8.79215 3.82189 8.83992C3.70514 8.88769 3.59907 8.95823 3.50987 9.04743C3.42068 9.13662 3.35014 9.24269 3.30237 9.35944C3.2546 9.4762 3.23057 9.60129 3.23166 9.72743C3.23276 9.85357 3.25897 9.97823 3.30875 10.0941C3.35854 10.21 3.43092 10.3149 3.52165 10.4025L4.86495 11.7458C4.95318 11.8341 5.05795 11.9042 5.17328 11.952C5.28861 11.9998 5.41223 12.0244 5.53707 12.0244C5.66192 12.0244 5.78554 11.9998 5.90087 11.952C6.0162 11.9042 6.12097 11.8341 6.2092 11.7458L8.8958 9.0592C8.98413 8.971 9.05422 8.86626 9.10207 8.75097C9.14992 8.63568 9.17459 8.5121 9.17468 8.38727C9.17477 8.26245 9.15027 8.13883 9.10258 8.02347C9.05489 7.90811 8.98495 7.80328 8.89675 7.71495C8.80855 7.62662 8.70381 7.55653 8.58852 7.50868C8.47323 7.46083 8.34965 7.43616 8.22482 7.43607C8.1 7.43598 7.97638 7.46048 7.86102 7.50817C7.74566 7.55586 7.64083 7.6258 7.5525 7.714L5.5366 9.7299V9.73085Z" fill="white"/>
</svg>